<svg width="39" height="39" fill="none" xmlns="http://www.w3.org/2000/svg"><g clip-path="url(#clip0_112_0)" fill="#000"><path d="M19.5 0a.65.65 0 00-.65.65v3.9a.65.65 0 001.3 0V.65A.65.65 0 0019.5 0zm-2.52 1.464l-.113-.64a.65.65 0 00-1.28.225l.112.64a.65.65 0 00.753.528.65.65 0 00.528-.753zm-3.094.712l-.222-.611a.65.65 0 10-1.221.445l.22.61a.65.65 0 101.223-.444zM8.298 5.14l-.418-.498a.65.65 0 00-.996.836l.418.497a.65.65 0 10.996-.835zM5.976 7.302l-.498-.418a.65.65 0 00-.836.996l.498.418a.65.65 0 10.836-.996zM2.62 12.664l-.61-.222a.65.65 0 10-.445 1.221l.61.223a.65.65 0 10.444-1.222zM1.69 15.7l-.64-.114a.65.65 0 00-.226 1.28l.64.114a.65.65 0 10.226-1.28zm.527 6.847a.65.65 0 00-.753-.527l-.64.113a.65.65 0 10.225 1.28l.64-.113a.65.65 0 00.528-.753zm.791 2.956a.65.65 0 00-.833-.389l-.61.222a.65.65 0 10.444 1.222l.61-.222a.65.65 0 00.39-.833zm3.049 5.259a.65.65 0 00-.917-.061l-.498.418a.65.65 0 10.836.996l.497-.418a.65.65 0 00.082-.935zm2.16 2.163a.65.65 0 00-.914.1l-.417.497a.65.65 0 00.995.836l.418-.498a.65.65 0 00-.082-.935zm5.28 3.067a.65.65 0 00-.833.389l-.221.61a.65.65 0 101.22.444l.223-.61a.65.65 0 00-.389-.834zm2.956.791a.65.65 0 00-.753.528l-.113.64a.65.65 0 001.28.225l.113-.64a.65.65 0 00-.527-.753zm6.961 1.167l-.113-.64a.65.65 0 10-1.28.226l.112.64a.65.65 0 00.753.528.65.65 0 00.528-.753zm3.144-.96l-.222-.61a.65.65 0 10-1.222.444l.222.611a.65.65 0 101.222-.444zm5.557-3.467l-.418-.498a.65.65 0 10-.996.835l.418.498a.645.645 0 00.915.08.65.65 0 00.08-.916zm2.243-2.404l-.498-.418a.65.65 0 10-.835.996l.498.418a.65.65 0 10.835-.996zm3.077-5.783l-.61-.222a.65.65 0 00-.445 1.222l.61.222a.65.65 0 10.445-1.222zm.742-3.203l-.64-.113a.65.65 0 10-.226 1.28l.64.114a.65.65 0 10.226-1.28zm.527-6.019a.65.65 0 00-.753-.528l-.64.114a.65.65 0 10.225 1.28l.64-.113a.65.65 0 00.528-.753zm-.872-3.299a.65.65 0 00-.84-.373l-.611.222a.65.65 0 10.444 1.222l.61-.222a.65.65 0 00.396-.85zm-3.396-5.831a.65.65 0 00-.913-.1l-.498.418a.65.65 0 00.835.996l.498-.418a.65.65 0 00.078-.896zm-2.399-2.403a.65.65 0 00-.917.061l-.418.498a.65.65 0 10.996.835l.418-.497a.65.65 0 00-.079-.897zM26.162 1.16a.65.65 0 00-.826.405l-.222.61a.65.65 0 101.222.445l.222-.61a.65.65 0 00-.396-.85zM22.886.296a.65.65 0 00-.753.528l-.113.64a.65.65 0 001.28.225l.114-.64a.65.65 0 00-.528-.753zM11.937 5.102l-1.3-2.252a.65.65 0 00-1.126.65l1.3 2.252a.65.65 0 101.126-.65zm-6.186 5.71L3.5 9.512a.65.65 0 00-.65 1.126l2.251 1.3a.65.65 0 00.65-1.126zm.241 16.482a.65.65 0 00-.89-.232l-2.251 1.3a.65.65 0 00.65 1.126l2.251-1.3a.65.65 0 00.24-.894zm5.708 5.71a.65.65 0 00-.887.244l-1.3 2.252a.65.65 0 001.126.65l1.3-2.252.004-.007a.65.65 0 00-.244-.887zM29.487 35.5l-1.3-2.252a.65.65 0 00-1.125.65l1.3 2.252a.65.65 0 101.125-.65zm6.663-7.138l-2.252-1.3a.65.65 0 00-.65 1.126l2.251 1.3a.65.65 0 00.65-1.126zm.237-18.606a.65.65 0 00-.887-.244l-2.251 1.3a.65.65 0 10.65 1.126l2.251-1.3a.65.65 0 00.237-.882zm-7.135-7.138a.65.65 0 00-.89.232l-1.3 2.252a.65.65 0 101.127.65l1.3-2.252a.65.65 0 00-.237-.882zM4.55 18.85H.65a.65.65 0 000 1.3h3.9a.65.65 0 000-1.3zM19.5 33.8a.65.65 0 00-.65.65v3.9a.65.65 0 101.3 0v-3.9a.65.65 0 00-.65-.65zm18.85-14.95H33.8a.65.65 0 100 1.3h4.55a.65.65 0 000-1.3zm-9.601-8.566a.65.65 0 00-.92 0l-7.01 7.01a2.556 2.556 0 00-1.3-.337c-.429.01-.848.126-1.221.339l-3.335-3.335a.651.651 0 00-.923.919l3.308 3.308a2.604 2.604 0 104.411 0l6.99-6.985a.65.65 0 000-.92zM20.53 20.46a1.3 1.3 0 01-1.875.03 1.3 1.3 0 01.884-2.233c.346-.01.68.122.925.366a1.3 1.3 0 01.066 1.837z"/></g><defs><clipPath id="clip0_112_0"><path fill="#fff" d="M0 0h39v39H0z"/></clipPath></defs></svg>