<svg width="30" height="30" fill="none" xmlns="http://www.w3.org/2000/svg"><path d="M29.11 13.152C26.485 11.065 21.158 7.563 15 7.563c-6.158 0-11.484 3.502-14.113 5.59A2.353 2.353 0 000 15c0 .722.323 1.395.882 1.842a29.8 29.8 0 002.975 2.11.677.677 0 00.72-1.144 28.806 28.806 0 01-2.845-2.018 1.007 1.007 0 01-.38-.79c0-.309.139-.597.378-.789C4.22 12.233 9.253 8.915 15 8.915s10.78 3.319 13.268 5.295a1.01 1.01 0 01.002 1.58c-2.49 1.977-7.523 5.294-13.27 5.294a.676.676 0 000 1.353c6.157 0 11.484-3.502 14.112-5.591A2.352 2.352 0 0030 15a2.35 2.35 0 00-.89-1.848z" fill="#fff"/><path d="M15 7.564c-4.1 0-7.437 3.336-7.437 7.436S10.9 22.437 15 22.437a.676.676 0 000-1.352A6.092 6.092 0 018.915 15 6.092 6.092 0 0115 8.916 6.091 6.091 0 0121.084 15a.676.676 0 001.353 0c0-4.1-3.336-7.436-7.437-7.436z" fill="#fff"/></svg>