<svg width="24" height="24" fill="none" xmlns="http://www.w3.org/2000/svg"><g clip-path="url(#clip0_77_217)"><path d="M21.822.732H1.963c-.68 0-1.23.552-1.23 1.233v19.858c0 .68.551 1.231 1.232 1.23h10.691v-8.631h-2.9v-3.379h2.9V8.557c0-2.884 1.76-4.453 4.333-4.453 1.232 0 2.29.091 2.599.132V7.25h-1.774c-1.4 0-1.67.665-1.67 1.641v2.152h3.346l-.436 3.379h-2.91v8.632h5.678c.68 0 1.232-.551 1.232-1.232V1.963c0-.68-.552-1.23-1.232-1.23z" fill="#372821"/></g><defs><clipPath id="clip0_77_217"><path fill="#fff" d="M0 0h23.809v23.809H0z"/></clipPath></defs></svg>