<svg width="45" height="18" fill="none" xmlns="http://www.w3.org/2000/svg"><path d="M19.346 6.667c0-.825.332-1.617.924-2.2a3.176 3.176 0 012.23-.911c.837 0 1.639.327 2.23.91a3.09 3.09 0 01.924 2.2m15.77-3.11H43m-1.577 0c0 9.333-1.577 12.444-7.885 12.444-6.307 0-7.884-3.111-7.884-12.444 0 0 1.577-1.556 7.884-1.556 6.308 0 7.885 1.556 7.885 1.556zm-37.846 0H2m1.577 0C3.577 12.889 5.154 16 11.46 16c6.308 0 7.885-3.111 7.885-12.444 0 0-1.577-1.556-7.885-1.556-6.307 0-7.884 1.556-7.884 1.556z" stroke="#222" stroke-width="3" stroke-linecap="round" stroke-linejoin="round"/></svg>