<svg width="23" height="23" fill="none" xmlns="http://www.w3.org/2000/svg"><g clip-path="url(#clip0_77_203)" fill="#372821"><path d="M16.049 0H6.57A6.578 6.578 0 000 6.57v9.479a6.578 6.578 0 006.57 6.57h9.479a6.578 6.578 0 006.57-6.57V6.57A6.578 6.578 0 0016.049 0zm4.803 16.049a4.809 4.809 0 01-4.803 4.803H6.57a4.809 4.809 0 01-4.803-4.803V6.57A4.809 4.809 0 016.57 1.767h9.479a4.809 4.809 0 014.803 4.803v9.479z"/><path d="M11.31 5.213a6.103 6.103 0 00-6.097 6.096 6.103 6.103 0 006.096 6.097 6.103 6.103 0 006.097-6.097 6.103 6.103 0 00-6.096-6.096zm0 10.426a4.334 4.334 0 01-4.33-4.33 4.334 4.334 0 014.33-4.329 4.334 4.334 0 014.329 4.33 4.334 4.334 0 01-4.33 4.329zm6.184-9.631a.884.884 0 100-1.767.884.884 0 000 1.767z"/></g><defs><clipPath id="clip0_77_203"><path fill="#fff" d="M0 0h22.619v22.619H0z"/></clipPath></defs></svg>