<svg width="34" height="33" fill="none" xmlns="http://www.w3.org/2000/svg"><path d="M4.846 7.64l9.126 6.653a5.124 5.124 0 006.056 0l9.126-6.653M2.61 21.577a21.484 21.484 0 010-10.154c1.062-4.364 4.453-7.739 8.755-8.712l.717-.162a22.295 22.295 0 019.838 0l.717.163c4.302.972 7.693 4.347 8.756 8.711.81 3.334.81 6.82 0 10.154-1.063 4.364-4.454 7.739-8.756 8.711l-.717.163c-3.24.732-6.598.732-9.838 0l-.717-.163c-4.302-.972-7.693-4.347-8.755-8.711z" stroke="#000" stroke-width="3" stroke-linecap="round"/></svg>