<svg width="25" height="24" fill="none" xmlns="http://www.w3.org/2000/svg"><g clip-path="url(#clip0_77_213)"><path d="M25 4.522c-.93.389-1.92.646-2.953.771 1.062-.604 1.873-1.554 2.255-2.698-.991.563-2.085.96-3.25 1.182a5.26 5.26 0 00-3.744-1.545c-2.838 0-5.122 2.193-5.122 4.882 0 .387.034.76.119 1.113C8.044 8.03 4.273 6.085 1.74 3.122a4.737 4.737 0 00-.702 2.467c0 1.69.914 3.19 2.277 4.057A5.257 5.257 0 011 9.044v.054c0 2.372 1.777 4.342 4.106 4.796-.417.109-.872.16-1.343.16a4.75 4.75 0 01-.97-.082c.663 1.933 2.548 3.354 4.788 3.4a10.63 10.63 0 01-6.354 2.082c-.42 0-.824-.018-1.227-.067 2.27 1.394 4.96 2.19 7.862 2.19 9.432 0 14.588-7.44 14.588-13.89 0-.215-.008-.424-.019-.63A9.97 9.97 0 0025 4.521z" fill="#372821"/></g><defs><clipPath id="clip0_77_213"><path fill="#fff" d="M0 0h25v23.809H0z"/></clipPath></defs></svg>